<?xml version="1.0" encoding="utf-8"?>
<!-- Generator: Adobe Illustrator 18.0.0, SVG Export Plug-In . SVG Version: 6.00 Build 0)  -->
<!DOCTYPE svg PUBLIC "-//W3C//DTD SVG 1.1//EN" "http://www.w3.org/Graphics/SVG/1.1/DTD/svg11.dtd">
<svg version="1.1" xmlns="http://www.w3.org/2000/svg" xmlns:xlink="http://www.w3.org/1999/xlink" x="0px" y="0px"
	 viewBox="0 0 32 32" enable-background="new 0 0 32 32" xml:space="preserve">
<g id="layer_1">
</g>
<g id="Layer_2">
</g>
<g id="Layer_3">
</g>
<g id="Layer_4">
</g>
<g id="Layer_5">
</g>
<g id="Layer_6">
</g>
<g id="Layer_7">
</g>
<g id="Layer_8">
</g>
<g id="Layer_9">
</g>
<g id="Layer_10">
</g>
<g id="Layer_11">
</g>
<g id="Layer_12">
</g>
<g id="Layer_13">
</g>
<g id="Layer_14">
</g>
<g id="Layer_15">
	<path d="M24,2H8C5.2,2,3,4.3,3,7v18c0,1.4,0.6,2.7,1.6,3.7C5.5,29.5,6.8,30,8,30c1.6,0,3.1-0.8,4.1-2.2l3.6-5.2
		c0.1-0.1,0.2-0.1,0.3-0.1s0.2,0,0.3,0.1l3.6,5.2c1,1.4,2.4,2.2,4.1,2.2c2.5,0,5-1.9,5-5V7C29,4.3,26.8,2,24,2z M27,25
		c0,1.9-1.5,3-3,3c-1,0-1.8-0.5-2.4-1.3l-3.6-5.2c-0.4-0.6-1.2-1-1.9-1s-1.5,0.4-1.9,1l-3.6,5.2C9.9,27.5,9,28,8,28
		c-0.8,0-1.5-0.3-2.1-0.8C5.5,26.8,5,26.1,5,25V7c0-1.7,1.3-3,3-3h16c1.7,0,3,1.4,3,3V25z"/>
</g>
<g id="Layer_16">
</g>
<g id="Layer_17">
</g>
<g id="Layer_18">
</g>
<g id="Layer_19">
</g>
<g id="Layer_20">
</g>
<g id="Layer_21">
</g>
<g id="Layer_22">
</g>
<g id="Layer_23">
</g>
<g id="Layer_24">
</g>
<g id="Layer_25">
</g>
<g id="Layer_26">
</g>
<g id="Layer_27">
</g>
<g id="Layer_28">
</g>
<g id="Layer_29">
</g>
<g id="Layer_30">
</g>
</svg>
