<?xml version="1.0" ?><svg viewBox="0 0 64 64" xmlns="http://www.w3.org/2000/svg"><title/><g data-name="Layer 16" id="Layer_16"><path d="M63,56H1a1,1,0,0,1-1-1V9A1,1,0,0,1,1,8H63a1,1,0,0,1,1,1V55A1,1,0,0,1,63,56ZM2,54H62V10H2Z"/><path d="M32,37a1,1,0,0,1-.66-.25l-31-27L1.66,8.25,32,34.67,62.34,8.25l1.31,1.51-31,27A1,1,0,0,1,32,37Z"/><rect height="2" transform="translate(-20.93 15.35) rotate(-34.09)" width="32.76" x="-1.82" y="40.81"/><rect height="32.76" transform="matrix(0.56, -0.83, 0.83, 0.56, -12.91, 59.29)" width="2" x="48.44" y="25.43"/></g></svg>