<?xml version="1.0" encoding="utf-8"?>
<!-- Generator: Adobe Illustrator 18.0.0, SVG Export Plug-In . SVG Version: 6.00 Build 0)  -->
<!DOCTYPE svg PUBLIC "-//W3C//DTD SVG 1.1//EN" "http://www.w3.org/Graphics/SVG/1.1/DTD/svg11.dtd">
<svg version="1.1" xmlns="http://www.w3.org/2000/svg" xmlns:xlink="http://www.w3.org/1999/xlink" x="0px" y="0px"
	 viewBox="0 0 32 32" enable-background="new 0 0 32 32" xml:space="preserve">
<g id="layer_1">
</g>
<g id="Layer_2">
</g>
<g id="Layer_3">
</g>
<g id="Layer_4">
</g>
<g id="Layer_5">
</g>
<g id="Layer_6">
</g>
<g id="Layer_7">
</g>
<g id="Layer_8">
</g>
<g id="Layer_9">
</g>
<g id="Layer_10">
</g>
<g id="Layer_11">
</g>
<g id="Layer_12">
</g>
<g id="Layer_13">
</g>
<g id="Layer_14">
</g>
<g id="Layer_15">
</g>
<g id="Layer_16">
</g>
<g id="Layer_17">
</g>
<g id="Layer_18">
</g>
<g id="Layer_19">
</g>
<g id="Layer_20">
	<path d="M27.2,5.4l-10-3.1c-0.8-0.2-1.6-0.2-2.4,0l-10,3.1C3.1,5.9,2,7.4,2,9.2V26c0,2.2,1.8,4,4,4h4.9H21h5c2.2,0,4-1.8,4-4V9.2
		C30,7.4,28.9,5.9,27.2,5.4z M11.9,28v-9c0-1.1,0.9-2,2-2H18c1.1,0,2,0.9,2,2v9H11.9z M28,26c0,1.1-0.9,2-2,2h-4v-9c0-2.2-1.8-4-4-4
		h-4.1c-2.2,0-4,1.8-4,4v9H6c-1.1,0-2-0.9-2-2V9.2c0-0.9,0.6-1.7,1.4-1.9l10-3.1c0.2-0.1,0.4-0.1,0.6-0.1s0.4,0,0.6,0.1l10,3.1
		c0.8,0.3,1.4,1,1.4,1.9V26z"/>
</g>
<g id="Layer_21">
</g>
<g id="Layer_22">
</g>
<g id="Layer_23">
</g>
<g id="Layer_24">
</g>
<g id="Layer_25">
</g>
<g id="Layer_26">
</g>
<g id="Layer_27">
</g>
<g id="Layer_28">
</g>
<g id="Layer_29">
</g>
<g id="Layer_30">
</g>
</svg>
