<?xml version="1.0" encoding="utf-8"?>
<!-- Generator: Adobe Illustrator 14.0.0, SVG Export Plug-In . SVG Version: 6.00 Build 43363)  -->
<!DOCTYPE svg PUBLIC "-//W3C//DTD SVG 1.1//EN" "http://www.w3.org/Graphics/SVG/1.1/DTD/svg11.dtd">
<svg version="1.1" id="Layer_1" xmlns="http://www.w3.org/2000/svg" xmlns:xlink="http://www.w3.org/1999/xlink" x="0px" y="0px"
	  viewBox="0 0 40 40" enable-background="new 0 0 40 40" xml:space="preserve">
<path d="M26.494,34.837c-1.435,0-2.851-0.369-4.096-1.067c-0.842,0.121-1.63,0.189-2.408,0.189c-7.691,0-13.948-6.259-13.948-13.951
	c0-0.726,0.06-1.468,0.177-2.205C5.483,16.472,5.1,15.03,5.1,13.567c0-4.634,3.771-8.404,8.408-8.404
	c1.44,0,2.866,0.373,4.123,1.079c0.837-0.116,1.608-0.182,2.359-0.182c7.691,0,13.949,6.257,13.949,13.947
	c0,0.703-0.058,1.431-0.17,2.162c0.744,1.33,1.131,2.78,1.131,4.261C34.9,31.065,31.129,34.837,26.494,34.837L26.494,34.837z
	 M22.485,32.443c0.118,0,0.232,0.032,0.33,0.093c1.107,0.67,2.38,1.023,3.679,1.023c3.931,0,7.129-3.198,7.129-7.129
	c0-1.336-0.369-2.636-1.069-3.76c-0.084-0.135-0.115-0.294-0.089-0.449c0.131-0.746,0.197-1.491,0.197-2.214
	c0-6.986-5.685-12.67-12.672-12.67c-0.764,0-1.549,0.073-2.335,0.218c-0.037,0.008-0.075,0.011-0.113,0.011
	c-0.116,0-0.231-0.032-0.333-0.094c-1.114-0.676-2.394-1.032-3.701-1.032c-3.932,0-7.131,3.197-7.131,7.127
	c0,1.323,0.367,2.617,1.06,3.742c0.083,0.134,0.112,0.292,0.085,0.445c-0.135,0.755-0.204,1.513-0.204,2.253
	c0,6.988,5.685,12.674,12.673,12.674c0.789,0,1.589-0.076,2.376-0.226C22.404,32.449,22.445,32.443,22.485,32.443L22.485,32.443z
	 M20.459,29.96c-2.835,0-5.499-0.908-6.951-2.369c-0.836-0.842-1.274-1.861-1.269-2.949c0.008-1.295,0.994-2.349,2.197-2.349
	c1.281,0,1.996,0.849,2.627,1.597c0.751,0.89,1.456,1.724,3.141,1.724c2.14,0,2.704-1.094,2.704-1.673
	c0-0.94-1.77-1.366-3.643-1.817c-3.011-0.725-7.134-1.717-7.134-5.944c0-1.808,0.72-3.423,2.029-4.548
	c1.32-1.137,3.154-1.737,5.306-1.737c0.23,0,0.467,0.008,0.702,0.023c4.872,0.285,7.38,2.508,7.649,4.453
	c0.079,0.759-0.129,1.443-0.585,1.948c-0.479,0.532-1.197,0.825-2.024,0.825c-1.095,0-1.773-0.642-2.373-1.207
	c-0.753-0.71-1.465-1.38-3.11-1.38c-0.503,0-2.145,0.097-2.145,1.347c0,0.593,1.37,0.968,3.307,1.433
	c3.136,0.751,7.408,1.773,7.408,6.015C28.295,27.304,25.146,29.96,20.459,29.96L20.459,29.96z M14.437,23.57
	c-0.545,0-0.916,0.558-0.92,1.079c-0.005,0.75,0.297,1.437,0.895,2.042c1.222,1.229,3.539,1.991,6.048,1.991
	c3.985,0,6.56-2.093,6.56-5.332c0-2.995-2.779-3.898-6.413-4.769c-1.054-0.253-2.048-0.492-2.794-0.825
	c-1.001-0.445-1.509-1.068-1.509-1.854c0-1.594,1.344-2.624,3.422-2.624c2.151,0,3.212,0.999,3.986,1.729
	c0.601,0.564,0.94,0.858,1.497,0.858c0.467,0,0.84-0.139,1.077-0.401c0.212-0.234,0.304-0.556,0.266-0.929
	c-0.213-1.453-2.548-3.116-6.455-3.346c-0.213-0.012-0.425-0.02-0.63-0.02c-3.68,0-6.058,1.966-6.058,5.008
	c0,2.987,2.552,3.834,6.157,4.705c1.133,0.271,2.203,0.528,3.023,0.921c1.06,0.509,1.597,1.227,1.597,2.136
	c0,1.42-1.246,2.949-3.981,2.949c-2.276,0-3.336-1.254-4.109-2.169C15.456,23.963,15.095,23.57,14.437,23.57L14.437,23.57z"/>
</svg>
